<svg xmlns="http://www.w3.org/2000/svg" width="1200" height="675" viewBox="0 0 1200 675">
 <defs><style>.t{font-family:'Microsoft YaHei',sans-serif;fill:#172033}.h{font-size:34px;font-weight:700}.s{font-size:18px;fill:#5d6b82}.k{font-size:21px;font-weight:700}.b{font-size:16px}.a{stroke:#3157d5;stroke-width:4;fill:none;marker-end:url(#m)}.e{stroke:#df6b20;stroke-width:3;fill:none;stroke-dasharray:7 6;marker-end:url(#o)}</style><marker id="m" markerWidth="10" markerHeight="10" refX="9" refY="3" orient="auto"><path d="M0 0L0 6L9 3z" fill="#3157d5"/></marker><marker id="o" markerWidth="10" markerHeight="10" refX="9" refY="3" orient="auto"><path d="M0 0L0 6L9 3z" fill="#df6b20"/></marker></defs>
 <rect width="1200" height="675" rx="24" fill="#f8fafc"/><text x="70" y="72" class="t h">把 while True 写成可解释的状态机</text><text x="70" y="108" class="t s">正常路径只有一条；停止、错误、审批和验收是显式分支</text>
 <g><rect x="70" y="230" width="150" height="92" rx="46" fill="#e8edff" stroke="#9eb2ef" stroke-width="2"/><text x="106" y="270" class="t k">准备输入</text><text x="104" y="296" class="t b">goal + state</text></g>
 <g><rect x="275" y="230" width="150" height="92" rx="20" fill="#fff" stroke="#d9e2ef" stroke-width="2"/><text x="314" y="270" class="t k">调用模型</text><text x="311" y="296" class="t b">next action</text></g>
 <g><rect x="480" y="230" width="150" height="92" rx="20" fill="#edf3ff" stroke="#9eb2ef" stroke-width="2"/><text x="513" y="270" class="t k">校验动作</text><text x="513" y="296" class="t b">schema / policy</text></g>
 <g><rect x="685" y="230" width="150" height="92" rx="20" fill="#eaf8f8" stroke="#8bcbd2" stroke-width="2"/><text x="718" y="270" class="t k">执行工具</text><text x="715" y="296" class="t b">side effect</text></g>
 <g><rect x="890" y="230" width="150" height="92" rx="20" fill="#fff" stroke="#d9e2ef" stroke-width="2"/><text x="922" y="270" class="t k">追加观察</text><text x="916" y="296" class="t b">result / error</text></g>
 <path d="M220 276H265" class="a"/><path d="M425 276H470" class="a"/><path d="M630 276H675" class="a"/><path d="M835 276H880" class="a"/><path d="M965 332V390H145V332" class="a"/><text x="505" y="418" class="t s">trajectory grows</text>
 <rect x="895" y="480" width="240" height="92" rx="20" fill="#172b5b"/><text x="949" y="522" font-family="Microsoft YaHei" font-size="21" font-weight="700" fill="#fff">验收通过 → 交付</text><text x="949" y="550" font-family="Microsoft YaHei" font-size="16" fill="#cbd8f2">final + evidence</text><path d="M1040 276H1100V470" class="a"/><text x="1049" y="252" class="t b">final?</text>
 <rect x="70" y="480" width="240" height="92" rx="20" fill="#fff2e8" stroke="#efb186" stroke-width="2"/><text x="110" y="521" class="t k">受控停止</text><text x="96" y="550" class="t b">预算 / 超时 / 重复 / 拒批</text>
 <path d="M350 230V178H190V470" class="e"/><text x="260" y="164" class="t b" fill="#df6b20">任一硬门槛触发</text><path d="M555 230V178H190" class="e"/><path d="M760 230V178H190" class="e"/>
</svg>
